<svg xmlns="http://www.w3.org/2000/svg" width="160" height="32" viewBox="0 0 160 32" fill="none">
  <rect width="32" height="32" rx="9" fill="#1F7A61"></rect>
  <path d="M16 5.6c-2.8 0-4.53 1.4-5.87 1.4-1.53 0-3.07-1.13-4.73-.73C3.73 6.87 2.27 9.47 2.73 13.33c.4 3.33 1.8 5.73 2.73 8.73.73 2.33.93 6.53 3.07 6.87 2.27.33 2.67-4.13 3.6-6.53.53-1.4 1-2.47 1.87-2.47s1.33 1.07 1.87 2.47c.93 2.4 1.33 6.87 3.6 6.53 2.13-.33 2.33-4.53 3.07-6.87.93-3 2.33-5.4 2.73-8.73.47-3.87-1-6.47-3.33-7.07-1.67-.4-3.2.73-4.73.73-1.33 0-3.07-1.4-5.87-1.4z" fill="white"></path>
  <text x="42" y="21.5" font-family="Inter, Helvetica, Arial, sans-serif" font-size="19" font-weight="700" letter-spacing="-0.2" fill="#141414">ASDent</text>
</svg>