<svg xmlns="http://www.w3.org/2000/svg" width="106" height="32" viewBox="0 0 106 32" fill="none">
  <rect width="32" height="32" rx="9" fill="#1F7A61"></rect>
  <g transform="translate(2, -1.27)">
    <path d="M16 5.6c-2.8 0-4.53 1.4-5.87 1.4-1.53 0-3.07-1.13-4.73-.73C3.73 6.87 2.27 9.47 2.73 13.33c.4 3.33 1.8 5.73 2.73 8.73.73 2.33.93 6.53 3.07 6.87 2.27.33 2.67-4.13 3.6-6.53.53-1.4 1-2.47 1.87-2.47s1.33 1.07 1.87 2.47c.93 2.4 1.33 6.87 3.6 6.53 2.13-.33 2.33-4.53 3.07-6.87.93-3 2.33-5.4 2.73-8.73.47-3.87-1-6.47-3.33-7.07-1.67-.4-3.2.73-4.73.73-1.33 0-3.07-1.4-5.87-1.4z" fill="white"></path>
  </g>
  <g transform="translate(0, 1.75)" stroke="#141414" stroke-width="1.7" stroke-linecap="round" stroke-linejoin="round" fill="none">
    <path d="M42,21.5 L46,7 L50,21.5"></path>
    <path d="M44,15 L48,15"></path>

    <path d="M59.5,9 C57,6.5 51,7.5 51,11.5 C51,15.5 59.5,14.5 59.5,18 C59.5,21.5 54,22.5 51.5,20"></path>

    <path d="M63,7 L63,21.5"></path>
    <path d="M63,7 C68.5,7 71,9.5 71,14.25 C71,19 68.5,21.5 63,21.5"></path>

    <path d="M80,16.5 L74.5,16.5"></path>
    <path d="M80,13.5 C80,10.5 77,9.5 75,10.5 C73,11.5 72.5,14 72.5,16 C72.5,19.5 75,21.5 78,21.5 C79.5,21.5 80.5,21 81,20"></path>

    <path d="M83.5,21.5 L83.5,11.5"></path>
    <path d="M83.5,14 C83.5,11 87.5,11 87.5,14.5 L87.5,21.5"></path>

    <path d="M96,8 L96,18.5 C96,21 98,21.7 100,20.3"></path>
    <path d="M93.5,11.5 L98.5,11.5"></path>
  </g>
</svg>
